<?xml version="1.0" encoding="UTF-8" standalone="no"?>
<svg width="32px" height="32px" viewBox="0 0 32 32" version="1.1" xmlns="http://www.w3.org/2000/svg" xmlns:xlink="http://www.w3.org/1999/xlink">
    <!-- Generator: Sketch 46.2 (44496) - http://www.bohemiancoding.com/sketch -->
    <title>Group</title>
    <desc>Created with Sketch.</desc>
    <defs></defs>
    <g id="Page-1" stroke="none" stroke-width="1" fill="none" fill-rule="evenodd">
        <g id="Group">
            <circle id="Oval" fill="#AAAAAA" cx="16" cy="16" r="16"></circle>
            <path d="M15.8947757,8.40530345 C16.0124927,6.75352024 17.6289053,5.42081147 19.2541027,5.50366506 C20.1958387,5.52834485 21.120005,5.90647452 21.8447552,6.50407805 C22.3288005,6.88220772 22.503619,7.63758564 22.179458,8.16996401 C21.8061018,8.70851233 20.9794474,8.68030685 20.4997945,8.30570286 C20.0544026,7.95842294 19.4860227,7.64728127 18.9053441,7.77244307 C18.3975797,7.89055351 18.1612672,8.46524009 18.2429664,8.94385177 C18.325544,9.42510771 18.4827928,9.88873523 18.6075377,10.3602955 C19.5273115,10.3999595 20.4462069,10.6361804 21.2552917,11.081298 C22.6028878,11.8587115 23.7563387,13.021306 24.3914834,14.4562596 C24.9985166,15.7889683 25.1267754,17.3067756 24.885192,18.7426106 C24.5434613,20.6076977 23.4734665,22.3061963 22.0186952,23.5031662 C20.3689002,24.8587919 18.2157333,25.5189763 16.0968273,25.4995851 C14.1079371,25.4995851 12.1374951,24.7838711 10.5852119,23.5410673 C8.50671622,21.8972169 7.16878344,19.3446212 7.02119795,16.6915436 C6.89118216,14.8361521 7.36380713,12.9507923 8.3134495,11.3571829 C9.40364948,9.51324983 11.1351436,8.0571421 13.142482,7.31939261 C13.4886051,7.20480786 13.8883158,7.20921497 14.2098414,7.39255056 C14.7114563,7.65609548 14.9214143,8.37092803 14.6095521,8.85394681 C14.4408829,9.15979995 14.1325347,9.35635686 13.8101306,9.46741593 C12.1612141,10.1046834 10.7732077,11.3845069 9.99486994,12.9754721 C9.35357583,14.2517699 9.13044062,15.725506 9.33337068,17.1375427 C9.59076681,18.9938156 10.6054171,20.7293338 12.0918138,21.8646043 C13.2768902,22.7759937 14.7711933,23.2951508 16.2681319,23.2528426 C17.9855702,23.247554 19.7399049,22.644662 20.9794474,21.426538 C21.8711097,20.5407097 22.5370014,19.3807595 22.6819515,18.1159202 C22.8910309,16.7505988 22.5264596,15.2918468 21.6119566,14.2447185 C20.9759334,13.5334117 20.1817829,12.9067212 19.236533,12.6854845 C19.4587897,13.3677045 19.6625982,14.0560944 19.855865,14.7471286 C20.1238029,15.7686957 20.1343447,16.9110175 19.616917,17.8585452 C19.0643499,18.9259462 17.9855702,19.7024782 16.7969799,19.8699482 C15.672519,20.0665051 14.4689945,19.6751542 13.6563958,18.8739423 C12.8736655,18.1291415 12.4247597,17.0599776 12.3869848,15.982881 C12.3087996,14.9613139 12.5222715,13.9088971 13.0563904,13.0292388 C13.7679634,11.8243361 15.0039919,10.9922745 16.3340183,10.6176705 C16.1671061,9.88609097 15.8420666,9.170377 15.8947757,8.40530345 L15.8947757,8.40530345 Z M14.7474742,14.7391958 C14.5032554,15.6100399 14.5814405,16.6941879 15.2938919,17.3279297 C15.9589051,17.9352288 17.1149915,17.6884309 17.5542341,16.926883 C17.8291999,16.5011566 17.8344708,15.9643712 17.735202,15.4831152 C17.4901046,14.5717258 17.2081109,13.6700319 16.9199678,12.7709824 C15.9650545,13.0706656 15.0347388,13.7334942 14.7474742,14.7391958 Z" id="Shape" fill="#FFFFFF" fill-rule="nonzero"></path>
        </g>
    </g>
</svg>